<svg width="450" height="155" viewBox="0 0 450 155" fill="none" xmlns="http://www.w3.org/2000/svg">
<g filter="url(#filter0_d_105_19)">
<rect x="25" y="15" width="400" height="105" fill="white"/>
</g>
<path d="M65.3398 61.2344C64.2617 61.2344 63.3633 61.1328 62.6445 60.9297C61.9258 60.7266 61.3477 60.4648 60.9102 60.1445C60.4805 59.8242 60.1719 59.4648 59.9844 59.0664C59.8047 58.668 59.7148 58.2734 59.7148 57.8828C59.7148 57.4688 59.7891 57.1211 59.9375 56.8398C60.0938 56.5586 60.2969 56.3281 60.5469 56.1484C60.8047 55.9688 61.0938 55.8398 61.4141 55.7617C61.7422 55.6836 62.082 55.6445 62.4336 55.6445C62.4336 56.332 62.5156 56.9375 62.6797 57.4609C62.8438 57.9766 63.0703 58.4102 63.3594 58.7617C63.6484 59.1055 63.9922 59.3672 64.3906 59.5469C64.7969 59.7188 65.2383 59.8047 65.7148 59.8047C66.1836 59.8047 66.6016 59.7383 66.9688 59.6055C67.3359 59.4727 67.6484 59.2891 67.9062 59.0547C68.1641 58.8203 68.3594 58.5469 68.4922 58.2344C68.625 57.9141 68.6914 57.5703 68.6914 57.2031C68.6914 56.7969 68.6094 56.4375 68.4453 56.125C68.2812 55.8047 68.0312 55.5117 67.6953 55.2461C67.3672 54.9727 66.9492 54.7148 66.4414 54.4727C65.9414 54.2227 65.3555 53.957 64.6836 53.6758C63.8477 53.332 63.1406 52.9805 62.5625 52.6211C61.9922 52.2539 61.5312 51.8594 61.1797 51.4375C60.8281 51.0156 60.5742 50.5586 60.418 50.0664C60.2695 49.5742 60.1953 49.0352 60.1953 48.4492C60.1953 47.7148 60.3438 47.0508 60.6406 46.457C60.9375 45.8633 61.3477 45.3555 61.8711 44.9336C62.3945 44.5117 63.0156 44.1875 63.7344 43.9609C64.4531 43.7344 65.2344 43.6211 66.0781 43.6211C66.9609 43.6211 67.7227 43.6953 68.3633 43.8438C69.0039 43.9844 69.5312 44.1797 69.9453 44.4297C70.3672 44.6797 70.6797 44.9766 70.8828 45.3203C71.0859 45.6562 71.1875 46.0195 71.1875 46.4102C71.1875 46.6914 71.125 46.9531 71 47.1953C70.8828 47.4375 70.6992 47.6484 70.4492 47.8281C70.207 48.0078 69.8984 48.1484 69.5234 48.25C69.1562 48.3516 68.7266 48.4023 68.2344 48.4023C68.2344 48.0664 68.1875 47.707 68.0938 47.3242C68.0078 46.9336 67.8633 46.5742 67.6602 46.2461C67.457 45.9102 67.1914 45.6328 66.8633 45.4141C66.543 45.1953 66.1523 45.0859 65.6914 45.0859C65.3711 45.0859 65.0664 45.1328 64.7773 45.2266C64.4883 45.3203 64.2344 45.4609 64.0156 45.6484C63.8047 45.8359 63.6367 46.0703 63.5117 46.3516C63.3867 46.625 63.3242 46.9414 63.3242 47.3008C63.3242 47.6367 63.3789 47.9531 63.4883 48.25C63.5977 48.5469 63.7969 48.8398 64.0859 49.1289C64.3828 49.4102 64.7852 49.6953 65.293 49.9844C65.8086 50.2656 66.4727 50.5703 67.2852 50.8984C68.1055 51.2344 68.8047 51.5781 69.3828 51.9297C69.9609 52.2812 70.4336 52.6602 70.8008 53.0664C71.1758 53.4648 71.4453 53.9062 71.6094 54.3906C71.7812 54.8672 71.8672 55.3984 71.8672 55.9844C71.8672 56.7578 71.7148 57.4688 71.4102 58.1172C71.1055 58.7578 70.668 59.3086 70.0977 59.7695C69.5273 60.2305 68.8398 60.5898 68.0352 60.8477C67.2383 61.1055 66.3398 61.2344 65.3398 61.2344ZM77.8672 57.4258C77.8672 58.1133 77.9766 58.6289 78.1953 58.9727C78.4141 59.3164 78.7578 59.4883 79.2266 59.4883C79.5703 59.4883 79.8789 59.418 80.1523 59.2773C80.4336 59.1289 80.6719 58.9219 80.8672 58.6562C81.0703 58.3906 81.2227 58.0703 81.3242 57.6953C81.4336 57.3125 81.4883 56.8867 81.4883 56.418V54.6133L80.4102 54.6836C79.9336 54.707 79.5312 54.7852 79.2031 54.918C78.875 55.043 78.6133 55.2188 78.418 55.4453C78.2227 55.6719 78.082 55.9492 77.9961 56.2773C77.9102 56.6055 77.8672 56.9883 77.8672 57.4258ZM80 49.293C79.6953 49.293 79.4375 49.3594 79.2266 49.4922C79.0234 49.6172 78.8594 49.7969 78.7344 50.0312C78.6094 50.2578 78.5195 50.5312 78.4648 50.8516C78.418 51.1641 78.3945 51.5078 78.3945 51.8828C77.3164 51.8828 76.5039 51.7617 75.957 51.5195C75.418 51.2773 75.1484 50.8633 75.1484 50.2773C75.1484 49.8398 75.2773 49.4648 75.5352 49.1523C75.8008 48.8398 76.1562 48.5859 76.6016 48.3906C77.0547 48.1953 77.5781 48.0547 78.1719 47.9688C78.7734 47.875 79.4141 47.8281 80.0938 47.8281C80.9375 47.8281 81.6719 47.9023 82.2969 48.0508C82.9297 48.1914 83.4531 48.4219 83.8672 48.7422C84.2891 49.0625 84.6055 49.4844 84.8164 50.0078C85.0273 50.5234 85.1328 51.1562 85.1328 51.9062V58.0234C85.1328 58.3516 85.1562 58.625 85.2031 58.8438C85.2578 59.0625 85.3398 59.2383 85.4492 59.3711C85.5586 59.4961 85.707 59.5859 85.8945 59.6406C86.082 59.6953 86.3086 59.7227 86.5742 59.7227H86.668V61H82.2031L81.6992 59.3477H81.4883C81.2227 59.668 80.9727 59.9492 80.7383 60.1914C80.5039 60.4258 80.2539 60.6211 79.9883 60.7773C79.7227 60.9336 79.4219 61.0469 79.0859 61.1172C78.7578 61.1953 78.3672 61.2344 77.9141 61.2344C77.3828 61.2344 76.8867 61.1562 76.4258 61C75.9727 60.8438 75.5742 60.6055 75.2305 60.2852C74.8945 59.957 74.6289 59.5508 74.4336 59.0664C74.2383 58.5742 74.1406 57.9961 74.1406 57.332C74.1406 56.0273 74.5859 55.0625 75.4766 54.4375C76.375 53.8125 77.7227 53.4727 79.5195 53.418L81.4883 53.3477V52.0234C81.4883 51.625 81.4727 51.2578 81.4414 50.9219C81.4102 50.5859 81.3438 50.2969 81.2422 50.0547C81.1406 49.8125 80.9883 49.625 80.7852 49.4922C80.5898 49.3594 80.3281 49.293 80 49.293ZM97.5078 61V53.1016C97.5078 52.5859 97.4727 52.1289 97.4023 51.7305C97.3398 51.3242 97.2305 50.9844 97.0742 50.7109C96.9258 50.4375 96.7266 50.2305 96.4766 50.0898C96.2344 49.9414 95.9375 49.8672 95.5859 49.8672C95.1875 49.8672 94.8555 49.9688 94.5898 50.1719C94.3242 50.375 94.1094 50.6484 93.9453 50.9922C93.7891 51.3281 93.6758 51.7227 93.6055 52.1758C93.5352 52.6211 93.5 53.0898 93.5 53.582V58.1641C93.5 58.5 93.5391 58.7695 93.6172 58.9727C93.7031 59.1758 93.8203 59.3359 93.9688 59.4531C94.1172 59.5625 94.2969 59.6367 94.5078 59.6758C94.7266 59.707 94.9688 59.7227 95.2344 59.7227H95.3047V61H87.9336V59.7227H87.9805C88.2539 59.7227 88.5039 59.707 88.7305 59.6758C88.957 59.6367 89.1523 59.5586 89.3164 59.4414C89.4883 59.3242 89.6211 59.1562 89.7148 58.9375C89.8086 58.7188 89.8555 58.4297 89.8555 58.0703V50.9688C89.8555 50.6328 89.8125 50.3633 89.7266 50.1602C89.6484 49.957 89.5312 49.8008 89.375 49.6914C89.2266 49.5742 89.0469 49.5 88.8359 49.4688C88.625 49.4297 88.3867 49.4102 88.1211 49.4102H88.0508V48.1328H93.0898L93.4062 49.8438H93.5234C93.7656 49.3906 94.0195 49.0312 94.2852 48.7656C94.5586 48.5 94.8477 48.2969 95.1523 48.1562C95.457 48.0156 95.7773 47.9258 96.1133 47.8867C96.457 47.8477 96.8164 47.8281 97.1914 47.8281C97.8086 47.8281 98.3633 47.918 98.8555 48.0977C99.3477 48.2773 99.7617 48.5547 100.098 48.9297C100.441 49.3047 100.703 49.7852 100.883 50.3711C101.062 50.9492 101.152 51.6445 101.152 52.457V58.0234C101.152 58.3984 101.184 58.6992 101.246 58.9258C101.316 59.1445 101.418 59.3125 101.551 59.4297C101.684 59.5469 101.852 59.625 102.055 59.6641C102.258 59.7031 102.496 59.7227 102.77 59.7227H102.84V61H97.5078ZM110.996 59.3008C111.309 59.3008 111.605 59.2812 111.887 59.2422C112.176 59.1953 112.445 59.1406 112.695 59.0781V60.6367C112.57 60.6992 112.398 60.7656 112.18 60.8359C111.969 60.9062 111.719 60.9688 111.43 61.0234C111.148 61.0859 110.828 61.1367 110.469 61.1758C110.109 61.2148 109.719 61.2344 109.297 61.2344C108.758 61.2344 108.27 61.168 107.832 61.0352C107.395 60.9102 107.023 60.6992 106.719 60.4023C106.414 60.0977 106.18 59.707 106.016 59.2305C105.852 58.7461 105.77 58.1523 105.77 57.4492V49.7734H103.965V48.543C104.48 48.543 104.941 48.4414 105.348 48.2383C105.754 48.0352 106.078 47.8008 106.32 47.5352C106.812 47.0195 107.18 46.2266 107.422 45.1562H109.414V48.1328H112.484V49.7734H109.414V57.2031C109.414 57.9297 109.535 58.4609 109.777 58.7969C110.027 59.1328 110.434 59.3008 110.996 59.3008ZM126.77 54.5195C126.77 56.7773 126.238 58.4609 125.176 59.5703C124.121 60.6797 122.566 61.2344 120.512 61.2344C119.551 61.2344 118.688 61.0977 117.922 60.8242C117.156 60.543 116.504 60.125 115.965 59.5703C115.434 59.0156 115.023 58.3164 114.734 57.4727C114.453 56.6289 114.312 55.6445 114.312 54.5195C114.312 52.2617 114.84 50.582 115.895 49.4805C116.957 48.3789 118.52 47.8281 120.582 47.8281C121.543 47.8281 122.402 47.9648 123.16 48.2383C123.926 48.5117 124.574 48.9258 125.105 49.4805C125.645 50.0352 126.055 50.7344 126.336 51.5781C126.625 52.4141 126.77 53.3945 126.77 54.5195ZM118.039 54.5195C118.039 55.3711 118.082 56.1211 118.168 56.7695C118.262 57.418 118.406 57.9609 118.602 58.3984C118.805 58.8359 119.066 59.168 119.387 59.3945C119.707 59.6133 120.098 59.7227 120.559 59.7227C121.02 59.7227 121.406 59.6133 121.719 59.3945C122.039 59.168 122.297 58.8359 122.492 58.3984C122.695 57.9609 122.84 57.418 122.926 56.7695C123.012 56.1211 123.055 55.3711 123.055 54.5195C123.055 53.6602 123.008 52.9102 122.914 52.2695C122.828 51.6211 122.684 51.082 122.48 50.6523C122.285 50.2227 122.027 49.9023 121.707 49.6914C121.387 49.4727 120.996 49.3633 120.535 49.3633C120.074 49.3633 119.684 49.4727 119.363 49.6914C119.043 49.9023 118.785 50.2227 118.59 50.6523C118.395 51.082 118.254 51.6211 118.168 52.2695C118.082 52.9102 118.039 53.6602 118.039 54.5195ZM136.402 61H128.387V59.7227H128.457C128.73 59.7227 128.98 59.7031 129.207 59.6641C129.434 59.625 129.629 59.5469 129.793 59.4297C129.957 59.3047 130.082 59.1289 130.168 58.9023C130.262 58.6758 130.309 58.375 130.309 58V51.0391C130.309 50.6875 130.266 50.4062 130.18 50.1953C130.102 49.9766 129.984 49.8086 129.828 49.6914C129.68 49.5742 129.5 49.5 129.289 49.4688C129.078 49.4297 128.84 49.4102 128.574 49.4102H128.504V48.1328H133.355L133.836 50.0078H133.953C134.109 49.6484 134.281 49.3359 134.469 49.0703C134.656 48.7969 134.879 48.5703 135.137 48.3906C135.402 48.2109 135.711 48.0781 136.062 47.9922C136.422 47.8984 136.848 47.8516 137.34 47.8516C138.285 47.8516 138.98 48.0195 139.426 48.3555C139.871 48.6836 140.094 49.1641 140.094 49.7969C140.094 50.5312 139.828 51.1016 139.297 51.5078C138.766 51.9141 138.016 52.1172 137.047 52.1172C137.047 51.7891 137.027 51.5 136.988 51.25C136.957 51 136.895 50.793 136.801 50.6289C136.715 50.4648 136.594 50.3398 136.438 50.2539C136.289 50.168 136.102 50.125 135.875 50.125C135.594 50.125 135.352 50.1953 135.148 50.3359C134.945 50.4766 134.773 50.6602 134.633 50.8867C134.492 51.1055 134.375 51.3555 134.281 51.6367C134.195 51.918 134.125 52.2031 134.07 52.4922C134.023 52.7734 133.992 53.043 133.977 53.3008C133.961 53.5586 133.953 53.7812 133.953 53.9688V58.1172C133.953 58.4688 133.996 58.7539 134.082 58.9727C134.168 59.1836 134.285 59.3438 134.434 59.4531C134.582 59.5625 134.758 59.6367 134.961 59.6758C135.172 59.707 135.395 59.7227 135.629 59.7227H136.402V61ZM142.531 44.2422C142.531 43.9375 142.582 43.6758 142.684 43.457C142.793 43.2383 142.938 43.0625 143.117 42.9297C143.305 42.7891 143.52 42.6875 143.762 42.625C144.012 42.5547 144.281 42.5195 144.57 42.5195C144.844 42.5195 145.105 42.5547 145.355 42.625C145.605 42.6875 145.824 42.7891 146.012 42.9297C146.199 43.0625 146.348 43.2383 146.457 43.457C146.574 43.6758 146.633 43.9375 146.633 44.2422C146.633 44.5391 146.574 44.7969 146.457 45.0156C146.348 45.2344 146.199 45.4141 146.012 45.5547C145.824 45.6953 145.605 45.8008 145.355 45.8711C145.105 45.9414 144.844 45.9766 144.57 45.9766C144.281 45.9766 144.012 45.9414 143.762 45.8711C143.52 45.8008 143.305 45.6953 143.117 45.5547C142.938 45.4141 142.793 45.2344 142.684 45.0156C142.582 44.7969 142.531 44.5391 142.531 44.2422ZM141.16 59.7227C141.34 59.7227 141.527 59.707 141.723 59.6758C141.926 59.6367 142.109 59.5625 142.273 59.4531C142.445 59.3438 142.586 59.1875 142.695 58.9844C142.812 58.7812 142.871 58.5078 142.871 58.1641V50.875C142.871 50.5547 142.812 50.3008 142.695 50.1133C142.586 49.918 142.445 49.7695 142.273 49.668C142.102 49.5586 141.914 49.4883 141.711 49.457C141.516 49.4258 141.332 49.4102 141.16 49.4102H140.879V48.1328H146.516V58.1641C146.516 58.5078 146.57 58.7812 146.68 58.9844C146.797 59.1875 146.938 59.3438 147.102 59.4531C147.273 59.5625 147.461 59.6367 147.664 59.6758C147.867 59.707 148.055 59.7227 148.227 59.7227H148.508V61H140.879V59.7227H141.16ZM158.984 61V53.1016C158.984 52.5859 158.949 52.1289 158.879 51.7305C158.816 51.3242 158.707 50.9844 158.551 50.7109C158.402 50.4375 158.203 50.2305 157.953 50.0898C157.711 49.9414 157.414 49.8672 157.062 49.8672C156.664 49.8672 156.332 49.9688 156.066 50.1719C155.801 50.375 155.586 50.6484 155.422 50.9922C155.266 51.3281 155.152 51.7227 155.082 52.1758C155.012 52.6211 154.977 53.0898 154.977 53.582V58.1641C154.977 58.5 155.016 58.7695 155.094 58.9727C155.18 59.1758 155.297 59.3359 155.445 59.4531C155.594 59.5625 155.773 59.6367 155.984 59.6758C156.203 59.707 156.445 59.7227 156.711 59.7227H156.781V61H149.41V59.7227H149.457C149.73 59.7227 149.98 59.707 150.207 59.6758C150.434 59.6367 150.629 59.5586 150.793 59.4414C150.965 59.3242 151.098 59.1562 151.191 58.9375C151.285 58.7188 151.332 58.4297 151.332 58.0703V50.9688C151.332 50.6328 151.289 50.3633 151.203 50.1602C151.125 49.957 151.008 49.8008 150.852 49.6914C150.703 49.5742 150.523 49.5 150.312 49.4688C150.102 49.4297 149.863 49.4102 149.598 49.4102H149.527V48.1328H154.566L154.883 49.8438H155C155.242 49.3906 155.496 49.0312 155.762 48.7656C156.035 48.5 156.324 48.2969 156.629 48.1562C156.934 48.0156 157.254 47.9258 157.59 47.8867C157.934 47.8477 158.293 47.8281 158.668 47.8281C159.285 47.8281 159.84 47.918 160.332 48.0977C160.824 48.2773 161.238 48.5547 161.574 48.9297C161.918 49.3047 162.18 49.7852 162.359 50.3711C162.539 50.9492 162.629 51.6445 162.629 52.457V58.0234C162.629 58.3984 162.66 58.6992 162.723 58.9258C162.793 59.1445 162.895 59.3125 163.027 59.4297C163.16 59.5469 163.328 59.625 163.531 59.6641C163.734 59.7031 163.973 59.7227 164.246 59.7227H164.316V61H158.984ZM167 44.2422C167 43.9375 167.051 43.6758 167.152 43.457C167.262 43.2383 167.406 43.0625 167.586 42.9297C167.773 42.7891 167.988 42.6875 168.23 42.625C168.48 42.5547 168.75 42.5195 169.039 42.5195C169.312 42.5195 169.574 42.5547 169.824 42.625C170.074 42.6875 170.293 42.7891 170.48 42.9297C170.668 43.0625 170.816 43.2383 170.926 43.457C171.043 43.6758 171.102 43.9375 171.102 44.2422C171.102 44.5391 171.043 44.7969 170.926 45.0156C170.816 45.2344 170.668 45.4141 170.48 45.5547C170.293 45.6953 170.074 45.8008 169.824 45.8711C169.574 45.9414 169.312 45.9766 169.039 45.9766C168.75 45.9766 168.48 45.9414 168.23 45.8711C167.988 45.8008 167.773 45.6953 167.586 45.5547C167.406 45.4141 167.262 45.2344 167.152 45.0156C167.051 44.7969 167 44.5391 167 44.2422ZM165.629 59.7227C165.809 59.7227 165.996 59.707 166.191 59.6758C166.395 59.6367 166.578 59.5625 166.742 59.4531C166.914 59.3438 167.055 59.1875 167.164 58.9844C167.281 58.7812 167.34 58.5078 167.34 58.1641V50.875C167.34 50.5547 167.281 50.3008 167.164 50.1133C167.055 49.918 166.914 49.7695 166.742 49.668C166.57 49.5586 166.383 49.4883 166.18 49.457C165.984 49.4258 165.801 49.4102 165.629 49.4102H165.348V48.1328H170.984V58.1641C170.984 58.5078 171.039 58.7812 171.148 58.9844C171.266 59.1875 171.406 59.3438 171.57 59.4531C171.742 59.5625 171.93 59.6367 172.133 59.6758C172.336 59.707 172.523 59.7227 172.695 59.7227H172.977V61H165.348V59.7227H165.629ZM178.777 59.9922C178.777 60.5 178.699 60.9922 178.543 61.4688C178.387 61.9453 178.137 62.3867 177.793 62.793C177.449 63.1992 177.004 63.5625 176.457 63.8828C175.918 64.2109 175.258 64.4805 174.477 64.6914V63.4492C174.828 63.3242 175.133 63.1992 175.391 63.0742C175.656 62.9492 175.875 62.8125 176.047 62.6641C176.227 62.5234 176.359 62.3633 176.445 62.1836C176.539 62.0117 176.586 61.8086 176.586 61.5742C176.586 61.4258 176.543 61.3008 176.457 61.1992C176.371 61.1055 176.262 61.0156 176.129 60.9297C176.004 60.8438 175.863 60.7578 175.707 60.6719C175.559 60.5781 175.418 60.4609 175.285 60.3203C175.16 60.1797 175.055 60.0078 174.969 59.8047C174.883 59.5938 174.84 59.3281 174.84 59.0078C174.84 58.4688 175.004 58.0586 175.332 57.7773C175.66 57.4961 176.07 57.3555 176.562 57.3555C177.242 57.3555 177.781 57.5898 178.18 58.0586C178.578 58.5273 178.777 59.1719 178.777 59.9922ZM204.254 52.4102C204.254 53.7305 204.074 54.9336 203.715 56.0195C203.363 57.1055 202.84 58.0352 202.145 58.8086C201.457 59.582 200.609 60.1797 199.602 60.6016C198.602 61.0234 197.449 61.2344 196.145 61.2344C194.777 61.2344 193.582 61.0234 192.559 60.6016C191.543 60.1797 190.699 59.582 190.027 58.8086C189.355 58.0352 188.852 57.1055 188.516 56.0195C188.18 54.9258 188.012 53.7148 188.012 52.3867C188.012 51.0586 188.18 49.8555 188.516 48.7773C188.852 47.6914 189.355 46.7656 190.027 46C190.707 45.2344 191.555 44.6445 192.57 44.2305C193.594 43.8086 194.793 43.5977 196.168 43.5977C197.465 43.5977 198.613 43.8086 199.613 44.2305C200.621 44.6445 201.469 45.2383 202.156 46.0117C202.844 46.7773 203.363 47.7031 203.715 48.7891C204.074 49.8672 204.254 51.0742 204.254 52.4102ZM192.043 52.4102C192.043 53.5586 192.117 54.582 192.266 55.4805C192.414 56.3789 192.652 57.1406 192.98 57.7656C193.309 58.3828 193.73 58.8555 194.246 59.1836C194.77 59.5117 195.402 59.6758 196.145 59.6758C196.895 59.6758 197.527 59.5117 198.043 59.1836C198.566 58.8555 198.988 58.3828 199.309 57.7656C199.629 57.1406 199.859 56.3789 200 55.4805C200.148 54.582 200.223 53.5586 200.223 52.4102C200.223 51.2617 200.148 50.2383 200 49.3398C199.859 48.4414 199.629 47.6836 199.309 47.0664C198.988 46.4414 198.57 45.9688 198.055 45.6484C197.539 45.3203 196.91 45.1562 196.168 45.1562C195.418 45.1562 194.781 45.3203 194.258 45.6484C193.734 45.9688 193.309 46.4414 192.98 47.0664C192.652 47.6836 192.414 48.4414 192.266 49.3398C192.117 50.2383 192.043 51.2617 192.043 52.4102ZM207.641 44.2422C207.641 43.9375 207.691 43.6758 207.793 43.457C207.902 43.2383 208.047 43.0625 208.227 42.9297C208.414 42.7891 208.629 42.6875 208.871 42.625C209.121 42.5547 209.391 42.5195 209.68 42.5195C209.953 42.5195 210.215 42.5547 210.465 42.625C210.715 42.6875 210.934 42.7891 211.121 42.9297C211.309 43.0625 211.457 43.2383 211.566 43.457C211.684 43.6758 211.742 43.9375 211.742 44.2422C211.742 44.5391 211.684 44.7969 211.566 45.0156C211.457 45.2344 211.309 45.4141 211.121 45.5547C210.934 45.6953 210.715 45.8008 210.465 45.8711C210.215 45.9414 209.953 45.9766 209.68 45.9766C209.391 45.9766 209.121 45.9414 208.871 45.8711C208.629 45.8008 208.414 45.6953 208.227 45.5547C208.047 45.4141 207.902 45.2344 207.793 45.0156C207.691 44.7969 207.641 44.5391 207.641 44.2422ZM206.27 59.7227C206.449 59.7227 206.637 59.707 206.832 59.6758C207.035 59.6367 207.219 59.5625 207.383 59.4531C207.555 59.3438 207.695 59.1875 207.805 58.9844C207.922 58.7812 207.98 58.5078 207.98 58.1641V50.875C207.98 50.5547 207.922 50.3008 207.805 50.1133C207.695 49.918 207.555 49.7695 207.383 49.668C207.211 49.5586 207.023 49.4883 206.82 49.457C206.625 49.4258 206.441 49.4102 206.27 49.4102H205.988V48.1328H211.625V58.1641C211.625 58.5078 211.68 58.7812 211.789 58.9844C211.906 59.1875 212.047 59.3438 212.211 59.4531C212.383 59.5625 212.57 59.6367 212.773 59.6758C212.977 59.707 213.164 59.7227 213.336 59.7227H213.617V61H205.988V59.7227H206.27ZM218.844 57.4258C218.844 58.1133 218.953 58.6289 219.172 58.9727C219.391 59.3164 219.734 59.4883 220.203 59.4883C220.547 59.4883 220.855 59.418 221.129 59.2773C221.41 59.1289 221.648 58.9219 221.844 58.6562C222.047 58.3906 222.199 58.0703 222.301 57.6953C222.41 57.3125 222.465 56.8867 222.465 56.418V54.6133L221.387 54.6836C220.91 54.707 220.508 54.7852 220.18 54.918C219.852 55.043 219.59 55.2188 219.395 55.4453C219.199 55.6719 219.059 55.9492 218.973 56.2773C218.887 56.6055 218.844 56.9883 218.844 57.4258ZM220.977 49.293C220.672 49.293 220.414 49.3594 220.203 49.4922C220 49.6172 219.836 49.7969 219.711 50.0312C219.586 50.2578 219.496 50.5312 219.441 50.8516C219.395 51.1641 219.371 51.5078 219.371 51.8828C218.293 51.8828 217.48 51.7617 216.934 51.5195C216.395 51.2773 216.125 50.8633 216.125 50.2773C216.125 49.8398 216.254 49.4648 216.512 49.1523C216.777 48.8398 217.133 48.5859 217.578 48.3906C218.031 48.1953 218.555 48.0547 219.148 47.9688C219.75 47.875 220.391 47.8281 221.07 47.8281C221.914 47.8281 222.648 47.9023 223.273 48.0508C223.906 48.1914 224.43 48.4219 224.844 48.7422C225.266 49.0625 225.582 49.4844 225.793 50.0078C226.004 50.5234 226.109 51.1562 226.109 51.9062V58.0234C226.109 58.3516 226.133 58.625 226.18 58.8438C226.234 59.0625 226.316 59.2383 226.426 59.3711C226.535 59.4961 226.684 59.5859 226.871 59.6406C227.059 59.6953 227.285 59.7227 227.551 59.7227H227.645V61H223.18L222.676 59.3477H222.465C222.199 59.668 221.949 59.9492 221.715 60.1914C221.48 60.4258 221.23 60.6211 220.965 60.7773C220.699 60.9336 220.398 61.0469 220.062 61.1172C219.734 61.1953 219.344 61.2344 218.891 61.2344C218.359 61.2344 217.863 61.1562 217.402 61C216.949 60.8438 216.551 60.6055 216.207 60.2852C215.871 59.957 215.605 59.5508 215.41 59.0664C215.215 58.5742 215.117 57.9961 215.117 57.332C215.117 56.0273 215.562 55.0625 216.453 54.4375C217.352 53.8125 218.699 53.4727 220.496 53.418L222.465 53.3477V52.0234C222.465 51.625 222.449 51.2578 222.418 50.9219C222.387 50.5859 222.32 50.2969 222.219 50.0547C222.117 49.8125 221.965 49.625 221.762 49.4922C221.566 49.3594 221.305 49.293 220.977 49.293ZM244.812 61.2344C243.328 61.2344 242.031 61.0234 240.922 60.6016C239.82 60.1797 238.902 59.582 238.168 58.8086C237.434 58.0352 236.887 57.1055 236.527 56.0195C236.168 54.9336 235.988 53.7305 235.988 52.4102C235.988 51.1133 236.18 49.9258 236.562 48.8477C236.945 47.7695 237.512 46.8438 238.262 46.0703C239.012 45.2969 239.945 44.6953 241.062 44.2656C242.18 43.8359 243.473 43.6211 244.941 43.6211C245.941 43.6211 246.812 43.6953 247.555 43.8438C248.305 43.9844 248.93 44.1797 249.43 44.4297C249.938 44.6797 250.316 44.9766 250.566 45.3203C250.816 45.6562 250.941 46.0195 250.941 46.4102C250.941 46.6914 250.875 46.957 250.742 47.207C250.609 47.4492 250.41 47.6641 250.145 47.8516C249.879 48.0391 249.555 48.1875 249.172 48.2969C248.789 48.3984 248.344 48.4492 247.836 48.4492C247.836 47.9648 247.777 47.5195 247.66 47.1133C247.543 46.707 247.359 46.3594 247.109 46.0703C246.867 45.7812 246.559 45.5586 246.184 45.4023C245.809 45.2383 245.367 45.1562 244.859 45.1562C243.984 45.1562 243.238 45.3164 242.621 45.6367C242.012 45.957 241.512 46.4258 241.121 47.043C240.738 47.6602 240.457 48.4219 240.277 49.3281C240.105 50.2266 240.02 51.2539 240.02 52.4102C240.02 53.5664 240.109 54.5938 240.289 55.4922C240.477 56.3828 240.773 57.1328 241.18 57.7422C241.594 58.3516 242.125 58.8164 242.773 59.1367C243.43 59.4492 244.23 59.6055 245.176 59.6055C245.473 59.6055 245.77 59.5938 246.066 59.5703C246.363 59.5469 246.652 59.5039 246.934 59.4414V55.9141C246.934 55.2734 246.789 54.8281 246.5 54.5781C246.211 54.3281 245.785 54.2031 245.223 54.2031H244.906V52.9375H252.453V54.2031H252.137C251.895 54.2031 251.684 54.2344 251.504 54.2969C251.324 54.3516 251.176 54.4492 251.059 54.5898C250.941 54.7305 250.855 54.918 250.801 55.1523C250.746 55.3789 250.719 55.6641 250.719 56.0078V59.9453C249.781 60.375 248.836 60.6992 247.883 60.918C246.93 61.1289 245.906 61.2344 244.812 61.2344ZM261.629 61H253.613V59.7227H253.684C253.957 59.7227 254.207 59.7031 254.434 59.6641C254.66 59.625 254.855 59.5469 255.02 59.4297C255.184 59.3047 255.309 59.1289 255.395 58.9023C255.488 58.6758 255.535 58.375 255.535 58V51.0391C255.535 50.6875 255.492 50.4062 255.406 50.1953C255.328 49.9766 255.211 49.8086 255.055 49.6914C254.906 49.5742 254.727 49.5 254.516 49.4688C254.305 49.4297 254.066 49.4102 253.801 49.4102H253.73V48.1328H258.582L259.062 50.0078H259.18C259.336 49.6484 259.508 49.3359 259.695 49.0703C259.883 48.7969 260.105 48.5703 260.363 48.3906C260.629 48.2109 260.938 48.0781 261.289 47.9922C261.648 47.8984 262.074 47.8516 262.566 47.8516C263.512 47.8516 264.207 48.0195 264.652 48.3555C265.098 48.6836 265.32 49.1641 265.32 49.7969C265.32 50.5312 265.055 51.1016 264.523 51.5078C263.992 51.9141 263.242 52.1172 262.273 52.1172C262.273 51.7891 262.254 51.5 262.215 51.25C262.184 51 262.121 50.793 262.027 50.6289C261.941 50.4648 261.82 50.3398 261.664 50.2539C261.516 50.168 261.328 50.125 261.102 50.125C260.82 50.125 260.578 50.1953 260.375 50.3359C260.172 50.4766 260 50.6602 259.859 50.8867C259.719 51.1055 259.602 51.3555 259.508 51.6367C259.422 51.918 259.352 52.2031 259.297 52.4922C259.25 52.7734 259.219 53.043 259.203 53.3008C259.188 53.5586 259.18 53.7812 259.18 53.9688V58.1172C259.18 58.4688 259.223 58.7539 259.309 58.9727C259.395 59.1836 259.512 59.3438 259.66 59.4531C259.809 59.5625 259.984 59.6367 260.188 59.6758C260.398 59.707 260.621 59.7227 260.855 59.7227H261.629V61ZM272.82 49.3867C272.148 49.3867 271.613 49.7188 271.215 50.3828C270.824 51.0469 270.609 52.0195 270.57 53.3008H274.719C274.719 52.6914 274.684 52.1445 274.613 51.6602C274.543 51.1758 274.43 50.7656 274.273 50.4297C274.125 50.0938 273.93 49.8359 273.688 49.6562C273.453 49.4766 273.164 49.3867 272.82 49.3867ZM273.043 61.2344C272.027 61.2344 271.129 61.0859 270.348 60.7891C269.574 60.4922 268.926 60.0625 268.402 59.5C267.879 58.9375 267.484 58.25 267.219 57.4375C266.953 56.6172 266.82 55.6836 266.82 54.6367C266.82 53.5117 266.953 52.5234 267.219 51.6719C267.484 50.8203 267.871 50.1094 268.379 49.5391C268.887 48.9688 269.508 48.543 270.242 48.2617C270.984 47.9727 271.828 47.8281 272.773 47.8281C273.641 47.8281 274.422 47.9531 275.117 48.2031C275.812 48.4453 276.402 48.8086 276.887 49.293C277.371 49.7773 277.742 50.3789 278 51.0977C278.258 51.8164 278.387 52.6523 278.387 53.6055V54.8359H270.523C270.547 55.6406 270.633 56.332 270.781 56.9102C270.938 57.4883 271.148 57.9648 271.414 58.3398C271.688 58.7148 272.016 58.9922 272.398 59.1719C272.789 59.3516 273.234 59.4414 273.734 59.4414C274.148 59.4414 274.531 59.3945 274.883 59.3008C275.234 59.1992 275.551 59.0625 275.832 58.8906C276.121 58.7109 276.371 58.5039 276.582 58.2695C276.801 58.0273 276.98 57.7695 277.121 57.4961C277.551 57.7305 277.766 58.1211 277.766 58.668C277.766 59.0117 277.672 59.3398 277.484 59.6523C277.297 59.957 277.008 60.2266 276.617 60.4609C276.227 60.6953 275.734 60.8828 275.141 61.0234C274.555 61.1641 273.855 61.2344 273.043 61.2344ZM286.531 49.3867C285.859 49.3867 285.324 49.7188 284.926 50.3828C284.535 51.0469 284.32 52.0195 284.281 53.3008H288.43C288.43 52.6914 288.395 52.1445 288.324 51.6602C288.254 51.1758 288.141 50.7656 287.984 50.4297C287.836 50.0938 287.641 49.8359 287.398 49.6562C287.164 49.4766 286.875 49.3867 286.531 49.3867ZM286.754 61.2344C285.738 61.2344 284.84 61.0859 284.059 60.7891C283.285 60.4922 282.637 60.0625 282.113 59.5C281.59 58.9375 281.195 58.25 280.93 57.4375C280.664 56.6172 280.531 55.6836 280.531 54.6367C280.531 53.5117 280.664 52.5234 280.93 51.6719C281.195 50.8203 281.582 50.1094 282.09 49.5391C282.598 48.9688 283.219 48.543 283.953 48.2617C284.695 47.9727 285.539 47.8281 286.484 47.8281C287.352 47.8281 288.133 47.9531 288.828 48.2031C289.523 48.4453 290.113 48.8086 290.598 49.293C291.082 49.7773 291.453 50.3789 291.711 51.0977C291.969 51.8164 292.098 52.6523 292.098 53.6055V54.8359H284.234C284.258 55.6406 284.344 56.332 284.492 56.9102C284.648 57.4883 284.859 57.9648 285.125 58.3398C285.398 58.7148 285.727 58.9922 286.109 59.1719C286.5 59.3516 286.945 59.4414 287.445 59.4414C287.859 59.4414 288.242 59.3945 288.594 59.3008C288.945 59.1992 289.262 59.0625 289.543 58.8906C289.832 58.7109 290.082 58.5039 290.293 58.2695C290.512 58.0273 290.691 57.7695 290.832 57.4961C291.262 57.7305 291.477 58.1211 291.477 58.668C291.477 59.0117 291.383 59.3398 291.195 59.6523C291.008 59.957 290.719 60.2266 290.328 60.4609C289.938 60.6953 289.445 60.8828 288.852 61.0234C288.266 61.1641 287.566 61.2344 286.754 61.2344ZM300.195 61.2344C299.312 61.2344 298.504 61.1211 297.77 60.8945C297.043 60.668 296.418 60.293 295.895 59.7695C295.371 59.2461 294.965 58.5625 294.676 57.7188C294.387 56.875 294.242 55.8398 294.242 54.6133C294.242 53.3164 294.391 52.2344 294.688 51.3672C294.992 50.5 295.406 49.8047 295.93 49.2812C296.461 48.7578 297.086 48.3867 297.805 48.168C298.523 47.9414 299.297 47.8281 300.125 47.8281C300.898 47.8281 301.582 47.8945 302.176 48.0273C302.77 48.1523 303.266 48.3281 303.664 48.5547C304.062 48.7812 304.363 49.0508 304.566 49.3633C304.777 49.668 304.883 49.9961 304.883 50.3477C304.883 50.6055 304.836 50.8594 304.742 51.1094C304.656 51.3516 304.496 51.5664 304.262 51.7539C304.035 51.9414 303.719 52.0938 303.312 52.2109C302.914 52.3281 302.402 52.3867 301.777 52.3867C301.777 51.9727 301.75 51.5781 301.695 51.2031C301.648 50.8281 301.566 50.5 301.449 50.2188C301.332 49.9375 301.172 49.7148 300.969 49.5508C300.773 49.3789 300.523 49.293 300.219 49.293C299.867 49.293 299.551 49.3789 299.27 49.5508C298.996 49.7148 298.758 50 298.555 50.4062C298.359 50.8125 298.207 51.3555 298.098 52.0352C297.996 52.7148 297.945 53.5664 297.945 54.5898C297.945 56.2148 298.168 57.4297 298.613 58.2344C299.059 59.0391 299.785 59.4414 300.793 59.4414C301.207 59.4414 301.594 59.3945 301.953 59.3008C302.32 59.1992 302.652 59.0625 302.949 58.8906C303.246 58.7109 303.504 58.5039 303.723 58.2695C303.949 58.0273 304.133 57.7695 304.273 57.4961C304.469 57.6133 304.613 57.7734 304.707 57.9766C304.801 58.1719 304.848 58.3789 304.848 58.5977C304.848 58.9023 304.758 59.2109 304.578 59.5234C304.398 59.8359 304.117 60.1211 303.734 60.3789C303.359 60.6289 302.879 60.8359 302.293 61C301.707 61.1562 301.008 61.2344 300.195 61.2344ZM312.898 49.3867C312.227 49.3867 311.691 49.7188 311.293 50.3828C310.902 51.0469 310.688 52.0195 310.648 53.3008H314.797C314.797 52.6914 314.762 52.1445 314.691 51.6602C314.621 51.1758 314.508 50.7656 314.352 50.4297C314.203 50.0938 314.008 49.8359 313.766 49.6562C313.531 49.4766 313.242 49.3867 312.898 49.3867ZM313.121 61.2344C312.105 61.2344 311.207 61.0859 310.426 60.7891C309.652 60.4922 309.004 60.0625 308.48 59.5C307.957 58.9375 307.562 58.25 307.297 57.4375C307.031 56.6172 306.898 55.6836 306.898 54.6367C306.898 53.5117 307.031 52.5234 307.297 51.6719C307.562 50.8203 307.949 50.1094 308.457 49.5391C308.965 48.9688 309.586 48.543 310.32 48.2617C311.062 47.9727 311.906 47.8281 312.852 47.8281C313.719 47.8281 314.5 47.9531 315.195 48.2031C315.891 48.4453 316.48 48.8086 316.965 49.293C317.449 49.7773 317.82 50.3789 318.078 51.0977C318.336 51.8164 318.465 52.6523 318.465 53.6055V54.8359H310.602C310.625 55.6406 310.711 56.332 310.859 56.9102C311.016 57.4883 311.227 57.9648 311.492 58.3398C311.766 58.7148 312.094 58.9922 312.477 59.1719C312.867 59.3516 313.312 59.4414 313.812 59.4414C314.227 59.4414 314.609 59.3945 314.961 59.3008C315.312 59.1992 315.629 59.0625 315.91 58.8906C316.199 58.7109 316.449 58.5039 316.66 58.2695C316.879 58.0273 317.059 57.7695 317.199 57.4961C317.629 57.7305 317.844 58.1211 317.844 58.668C317.844 59.0117 317.75 59.3398 317.562 59.6523C317.375 59.957 317.086 60.2266 316.695 60.4609C316.305 60.6953 315.812 60.8828 315.219 61.0234C314.633 61.1641 313.934 61.2344 313.121 61.2344Z" fill="black"/>
<path d="M152 82L153.572 86.8369H158.657L154.543 89.8262L156.114 94.6631L152 91.6738L147.886 94.6631L149.457 89.8262L145.343 86.8369H150.428L152 82Z" fill="#FFC01E"/>
<path d="M168 82L169.572 86.8369H174.657L170.543 89.8262L172.114 94.6631L168 91.6738L163.886 94.6631L165.457 89.8262L161.343 86.8369H166.428L168 82Z" fill="#FFC01E"/>
<path d="M184 82L185.572 86.8369H190.657L186.543 89.8262L188.114 94.6631L184 91.6738L179.886 94.6631L181.457 89.8262L177.343 86.8369H182.428L184 82Z" fill="#FFC01E"/>
<path d="M201 82L202.572 86.8369H207.657L203.543 89.8262L205.114 94.6631L201 91.6738L196.886 94.6631L198.457 89.8262L194.343 86.8369H199.428L201 82Z" fill="#FFC01E"/>
<path d="M217 82L218.572 86.8369H223.657L219.543 89.8262L221.114 94.6631L217 91.6738L212.886 94.6631L214.457 89.8262L210.343 86.8369H215.428L217 82Z" fill="#FFC01E"/>
<path d="M240.126 91.148C240.126 92.324 239.718 93.308 238.902 94.1C238.086 94.892 237.078 95.288 235.878 95.288C234.918 95.288 234.048 94.988 233.268 94.388C232.488 93.788 231.972 92.978 231.72 91.958L233.196 91.364C233.376 92.084 233.7 92.654 234.168 93.074C234.648 93.494 235.206 93.704 235.842 93.704C236.61 93.704 237.234 93.47 237.714 93.002C238.206 92.522 238.452 91.91 238.452 91.166C238.452 90.41 238.206 89.792 237.714 89.312C237.234 88.832 236.616 88.592 235.86 88.592C234.984 88.592 234.294 88.946 233.79 89.654L232.116 88.934L232.908 82.688H239.37V84.272H234.294L233.844 87.8L233.916 87.818C234.528 87.326 235.272 87.08 236.148 87.08C237.252 87.08 238.188 87.47 238.956 88.25C239.736 89.03 240.126 89.996 240.126 91.148ZM249.75 95H247.752L244.998 90.842L243.648 92.174V95H241.992V82.112H243.648V90.05L247.464 86.18H249.588V86.252L246.15 89.672L249.75 94.928V95ZM256.593 83.696V88.232H259.257C259.929 88.232 260.499 88.016 260.967 87.584C261.435 87.14 261.669 86.594 261.669 85.946C261.669 85.346 261.447 84.824 261.003 84.38C260.571 83.924 260.025 83.696 259.365 83.696H256.593ZM256.593 95H254.937V82.112H259.329C260.445 82.112 261.393 82.484 262.173 83.228C262.965 83.96 263.361 84.866 263.361 85.946C263.361 86.834 263.067 87.626 262.479 88.322C261.903 89.006 261.171 89.444 260.283 89.636L260.247 89.69L263.865 94.928V95H261.903L258.429 89.78H256.593V95ZM268.839 95.288C267.543 95.288 266.475 94.844 265.635 93.956C264.795 93.068 264.375 91.946 264.375 90.59C264.375 89.246 264.783 88.13 265.599 87.242C266.415 86.342 267.459 85.892 268.731 85.892C270.039 85.892 271.077 86.318 271.845 87.17C272.625 88.01 273.015 89.192 273.015 90.716L272.997 90.896H266.067C266.091 91.76 266.379 92.456 266.931 92.984C267.483 93.512 268.143 93.776 268.911 93.776C269.967 93.776 270.795 93.248 271.395 92.192L272.871 92.912C272.475 93.656 271.923 94.238 271.215 94.658C270.519 95.078 269.727 95.288 268.839 95.288ZM266.193 89.528H271.251C271.203 88.916 270.951 88.412 270.495 88.016C270.051 87.608 269.451 87.404 268.695 87.404C268.071 87.404 267.531 87.596 267.075 87.98C266.631 88.364 266.337 88.88 266.193 89.528ZM278.638 95H276.982L273.418 86.18H275.218L277.81 93.02H277.846L280.474 86.18H282.238L278.638 95ZM285.461 83.138C285.461 83.462 285.347 83.738 285.119 83.966C284.891 84.194 284.615 84.308 284.291 84.308C283.967 84.308 283.691 84.194 283.463 83.966C283.235 83.738 283.121 83.462 283.121 83.138C283.121 82.814 283.235 82.538 283.463 82.31C283.691 82.082 283.967 81.968 284.291 81.968C284.615 81.968 284.891 82.082 285.119 82.31C285.347 82.538 285.461 82.814 285.461 83.138ZM285.119 86.18V95H283.463V86.18H285.119ZM291.146 95.288C289.85 95.288 288.782 94.844 287.942 93.956C287.102 93.068 286.682 91.946 286.682 90.59C286.682 89.246 287.09 88.13 287.906 87.242C288.722 86.342 289.766 85.892 291.038 85.892C292.346 85.892 293.384 86.318 294.152 87.17C294.932 88.01 295.322 89.192 295.322 90.716L295.304 90.896H288.374C288.398 91.76 288.686 92.456 289.238 92.984C289.79 93.512 290.45 93.776 291.218 93.776C292.274 93.776 293.102 93.248 293.702 92.192L295.178 92.912C294.782 93.656 294.23 94.238 293.522 94.658C292.826 95.078 292.034 95.288 291.146 95.288ZM288.5 89.528H293.558C293.51 88.916 293.258 88.412 292.802 88.016C292.358 87.608 291.758 87.404 291.002 87.404C290.378 87.404 289.838 87.596 289.382 87.98C288.938 88.364 288.644 88.88 288.5 89.528ZM309.152 86.18L306.308 95H304.616L302.42 88.232L300.242 95H298.568L295.724 86.18H297.452L299.414 92.84H299.432L301.61 86.18H303.32L305.498 92.84H305.516L307.46 86.18H309.152ZM316.981 92.552C316.981 93.32 316.645 93.968 315.973 94.496C315.301 95.024 314.455 95.288 313.435 95.288C312.547 95.288 311.767 95.06 311.095 94.604C310.423 94.136 309.943 93.524 309.655 92.768L311.131 92.138C311.347 92.666 311.659 93.08 312.067 93.38C312.487 93.668 312.943 93.812 313.435 93.812C313.963 93.812 314.401 93.698 314.749 93.47C315.109 93.242 315.289 92.972 315.289 92.66C315.289 92.096 314.857 91.682 313.993 91.418L312.481 91.04C310.765 90.608 309.907 89.78 309.907 88.556C309.907 87.752 310.231 87.11 310.879 86.63C311.539 86.138 312.379 85.892 313.399 85.892C314.179 85.892 314.881 86.078 315.505 86.45C316.141 86.822 316.585 87.32 316.837 87.944L315.361 88.556C315.193 88.184 314.917 87.896 314.533 87.692C314.161 87.476 313.741 87.368 313.273 87.368C312.841 87.368 312.451 87.476 312.103 87.692C311.767 87.908 311.599 88.172 311.599 88.484C311.599 88.988 312.073 89.348 313.021 89.564L314.353 89.906C316.105 90.338 316.981 91.22 316.981 92.552Z" fill="#A79997"/>
<path d="M63.338 95.234C62.438 95.102 61.634 94.754 60.926 94.19C60.23 93.626 59.732 92.816 59.432 91.76L61.502 90.914C61.622 91.394 61.844 91.826 62.168 92.21C62.492 92.582 62.882 92.84 63.338 92.984V89.564L63.176 89.492C62.732 89.324 62.312 89.126 61.916 88.898C61.532 88.67 61.19 88.406 60.89 88.106C60.602 87.806 60.368 87.47 60.188 87.098C60.02 86.714 59.936 86.288 59.936 85.82C59.936 85.388 60.014 84.98 60.17 84.596C60.326 84.212 60.548 83.87 60.836 83.57C61.136 83.27 61.496 83.024 61.916 82.832C62.336 82.628 62.81 82.496 63.338 82.436V80.888H64.94V82.472C65.42 82.544 65.834 82.67 66.182 82.85C66.542 83.03 66.848 83.24 67.1 83.48C67.364 83.708 67.574 83.954 67.73 84.218C67.886 84.482 68.006 84.74 68.09 84.992L66.074 85.892C65.99 85.652 65.858 85.424 65.678 85.208C65.498 84.992 65.252 84.818 64.94 84.686V87.908C65.456 88.124 65.924 88.346 66.344 88.574C66.764 88.802 67.124 89.06 67.424 89.348C67.724 89.636 67.952 89.966 68.108 90.338C68.264 90.698 68.342 91.118 68.342 91.598C68.342 92.138 68.246 92.618 68.054 93.038C67.874 93.458 67.628 93.818 67.316 94.118C67.004 94.418 66.638 94.658 66.218 94.838C65.81 95.018 65.384 95.144 64.94 95.216V96.8H63.338V95.234ZM62.15 85.82C62.15 86.108 62.24 86.36 62.42 86.576C62.612 86.78 62.918 86.99 63.338 87.206V84.578C62.978 84.674 62.69 84.83 62.474 85.046C62.258 85.262 62.15 85.52 62.15 85.82ZM66.038 91.616C66.038 91.304 65.954 91.046 65.786 90.842C65.618 90.638 65.336 90.434 64.94 90.23V92.984C65.264 92.876 65.528 92.708 65.732 92.48C65.936 92.24 66.038 91.952 66.038 91.616ZM69.8827 95V92.858C70.5907 92.162 71.2447 91.514 71.8447 90.914C72.0967 90.662 72.3547 90.404 72.6187 90.14C72.8827 89.876 73.1287 89.63 73.3567 89.402C73.5847 89.174 73.7887 88.97 73.9687 88.79C74.1487 88.598 74.2867 88.448 74.3827 88.34C74.5747 88.112 74.7427 87.908 74.8867 87.728C75.0427 87.548 75.1627 87.374 75.2467 87.206C75.3427 87.026 75.4147 86.852 75.4627 86.684C75.5107 86.504 75.5347 86.312 75.5347 86.108C75.5347 85.712 75.3787 85.37 75.0667 85.082C74.7547 84.782 74.3287 84.632 73.7887 84.632C73.2487 84.632 72.8287 84.788 72.5287 85.1C72.2287 85.4 72.0247 85.742 71.9167 86.126L69.7747 85.244C69.8707 84.92 70.0267 84.59 70.2427 84.254C70.4587 83.906 70.7347 83.6 71.0707 83.336C71.4067 83.06 71.8027 82.838 72.2587 82.67C72.7267 82.49 73.2487 82.4 73.8247 82.4C74.4487 82.4 75.0127 82.496 75.5167 82.688C76.0207 82.868 76.4467 83.12 76.7947 83.444C77.1427 83.768 77.4127 84.152 77.6047 84.596C77.7967 85.028 77.8927 85.496 77.8927 86C77.8927 86.768 77.7007 87.476 77.3167 88.124C76.9447 88.76 76.4887 89.354 75.9487 89.906L74.4007 91.454C73.9927 91.862 73.5307 92.318 73.0147 92.822L73.0867 92.93H78.0727V95H69.8827ZM84.8213 95.288C84.0293 95.288 83.3153 95.126 82.6793 94.802C82.0433 94.466 81.4973 94.01 81.0413 93.434C80.5973 92.858 80.2553 92.18 80.0153 91.4C79.7753 90.608 79.6553 89.756 79.6553 88.844C79.6553 87.932 79.7753 87.086 80.0153 86.306C80.2553 85.514 80.5973 84.83 81.0413 84.254C81.4973 83.678 82.0433 83.228 82.6793 82.904C83.3153 82.568 84.0293 82.4 84.8213 82.4C85.6133 82.4 86.3273 82.568 86.9633 82.904C87.5993 83.228 88.1393 83.678 88.5833 84.254C89.0393 84.83 89.3873 85.514 89.6273 86.306C89.8673 87.086 89.9873 87.932 89.9873 88.844C89.9873 89.756 89.8673 90.608 89.6273 91.4C89.3873 92.18 89.0393 92.858 88.5833 93.434C88.1393 94.01 87.5993 94.466 86.9633 94.802C86.3273 95.126 85.6133 95.288 84.8213 95.288ZM84.8213 93.056C85.2533 93.056 85.6433 92.954 85.9913 92.75C86.3393 92.534 86.6333 92.24 86.8733 91.868C87.1253 91.484 87.3113 91.034 87.4313 90.518C87.5633 90.002 87.6293 89.444 87.6293 88.844C87.6293 88.232 87.5633 87.674 87.4313 87.17C87.3113 86.654 87.1253 86.21 86.8733 85.838C86.6333 85.454 86.3393 85.16 85.9913 84.956C85.6433 84.74 85.2533 84.632 84.8213 84.632C84.3773 84.632 83.9813 84.74 83.6333 84.956C83.2853 85.16 82.9913 85.454 82.7513 85.838C82.5113 86.21 82.3253 86.654 82.1933 87.17C82.0733 87.674 82.0133 88.232 82.0133 88.844C82.0133 89.444 82.0733 90.002 82.1933 90.518C82.3253 91.034 82.5113 91.484 82.7513 91.868C82.9913 92.24 83.2853 92.534 83.6333 92.75C83.9813 92.954 84.3773 93.056 84.8213 93.056ZM96.7393 95.288C95.9473 95.288 95.2333 95.126 94.5973 94.802C93.9613 94.466 93.4153 94.01 92.9593 93.434C92.5153 92.858 92.1733 92.18 91.9333 91.4C91.6933 90.608 91.5733 89.756 91.5733 88.844C91.5733 87.932 91.6933 87.086 91.9333 86.306C92.1733 85.514 92.5153 84.83 92.9593 84.254C93.4153 83.678 93.9613 83.228 94.5973 82.904C95.2333 82.568 95.9473 82.4 96.7393 82.4C97.5313 82.4 98.2453 82.568 98.8813 82.904C99.5173 83.228 100.057 83.678 100.501 84.254C100.957 84.83 101.305 85.514 101.545 86.306C101.785 87.086 101.905 87.932 101.905 88.844C101.905 89.756 101.785 90.608 101.545 91.4C101.305 92.18 100.957 92.858 100.501 93.434C100.057 94.01 99.5173 94.466 98.8813 94.802C98.2453 95.126 97.5313 95.288 96.7393 95.288ZM96.7393 93.056C97.1713 93.056 97.5613 92.954 97.9093 92.75C98.2573 92.534 98.5513 92.24 98.7913 91.868C99.0433 91.484 99.2293 91.034 99.3493 90.518C99.4813 90.002 99.5473 89.444 99.5473 88.844C99.5473 88.232 99.4813 87.674 99.3493 87.17C99.2293 86.654 99.0433 86.21 98.7913 85.838C98.5513 85.454 98.2573 85.16 97.9093 84.956C97.5613 84.74 97.1713 84.632 96.7393 84.632C96.2953 84.632 95.8993 84.74 95.5513 84.956C95.2033 85.16 94.9093 85.454 94.6693 85.838C94.4293 86.21 94.2433 86.654 94.1113 87.17C93.9913 87.674 93.9313 88.232 93.9313 88.844C93.9313 89.444 93.9913 90.002 94.1113 90.518C94.2433 91.034 94.4293 91.484 94.6693 91.868C94.9093 92.24 95.2033 92.534 95.5513 92.75C95.8993 92.954 96.2953 93.056 96.7393 93.056ZM108.657 95.288C107.865 95.288 107.151 95.126 106.515 94.802C105.879 94.466 105.333 94.01 104.877 93.434C104.433 92.858 104.091 92.18 103.851 91.4C103.611 90.608 103.491 89.756 103.491 88.844C103.491 87.932 103.611 87.086 103.851 86.306C104.091 85.514 104.433 84.83 104.877 84.254C105.333 83.678 105.879 83.228 106.515 82.904C107.151 82.568 107.865 82.4 108.657 82.4C109.449 82.4 110.163 82.568 110.799 82.904C111.435 83.228 111.975 83.678 112.419 84.254C112.875 84.83 113.223 85.514 113.463 86.306C113.703 87.086 113.823 87.932 113.823 88.844C113.823 89.756 113.703 90.608 113.463 91.4C113.223 92.18 112.875 92.858 112.419 93.434C111.975 94.01 111.435 94.466 110.799 94.802C110.163 95.126 109.449 95.288 108.657 95.288ZM108.657 93.056C109.089 93.056 109.479 92.954 109.827 92.75C110.175 92.534 110.469 92.24 110.709 91.868C110.961 91.484 111.147 91.034 111.267 90.518C111.399 90.002 111.465 89.444 111.465 88.844C111.465 88.232 111.399 87.674 111.267 87.17C111.147 86.654 110.961 86.21 110.709 85.838C110.469 85.454 110.175 85.16 109.827 84.956C109.479 84.74 109.089 84.632 108.657 84.632C108.213 84.632 107.817 84.74 107.469 84.956C107.121 85.16 106.827 85.454 106.587 85.838C106.347 86.21 106.161 86.654 106.029 87.17C105.909 87.674 105.849 88.232 105.849 88.844C105.849 89.444 105.909 90.002 106.029 90.518C106.161 91.034 106.347 91.484 106.587 91.868C106.827 92.24 107.121 92.534 107.469 92.75C107.817 92.954 108.213 93.056 108.657 93.056Z" fill="#FF715B"/>
<rect x="340" y="43" width="50" height="50" fill="#FF715B"/>
<path d="M366.208 68.104H370.312V70.888H366.208V74.968H363.424V70.888H359.344V68.104H363.424V64.024H366.208V68.104Z" fill="white"/>
<defs>
<filter id="filter0_d_105_19" x="0" y="0" width="450" height="155" filterUnits="userSpaceOnUse" color-interpolation-filters="sRGB">
<feFlood flood-opacity="0" result="BackgroundImageFix"/>
<feColorMatrix in="SourceAlpha" type="matrix" values="0 0 0 0 0 0 0 0 0 0 0 0 0 0 0 0 0 0 127 0" result="hardAlpha"/>
<feOffset dy="10"/>
<feGaussianBlur stdDeviation="12.5"/>
<feColorMatrix type="matrix" values="0 0 0 0 0.841667 0 0 0 0 0.743472 0 0 0 0 0.743472 0 0 0 0.2 0"/>
<feBlend mode="normal" in2="BackgroundImageFix" result="effect1_dropShadow_105_19"/>
<feBlend mode="normal" in="SourceGraphic" in2="effect1_dropShadow_105_19" result="shape"/>
</filter>
</defs>
</svg>
