<svg width="47" height="47" viewBox="0 0 47 47" fill="none" xmlns="http://www.w3.org/2000/svg">
<g id="next">
<rect id="btn_border" x="1" y="1" width="45" height="45" stroke="#F5EBE9" stroke-width="2"/>
<path id="arrow right" d="M20.8938 16.2437C20.7438 16.0937 20.5375 16 20.3125 16C20.0875 16 19.9 16.0937 19.7313 16.2437L19.2438 16.7312C18.925 17.05 18.925 17.575 19.2438 17.8937L24.85 23.5L19.2438 29.1062C19.0938 29.2562 19 29.4625 19 29.6875C19 29.9125 19.0938 30.1188 19.2438 30.2688L19.7313 30.7562C19.8813 30.9062 20.0875 31 20.3125 31C20.5375 31 20.7438 30.9062 20.8938 30.7562L27.5688 24.0813C27.7188 23.9313 27.8125 23.725 27.8125 23.5C27.8125 23.275 27.7188 23.0687 27.5688 22.9188L20.8938 16.2437Z" fill="#FF715B"/>
</g>
</svg>
