<svg width="47" height="47" viewBox="0 0 47 47" fill="none" xmlns="http://www.w3.org/2000/svg">
<g id="prev">
<rect id="btn_bg" width="47" height="47" fill="#FF715B"/>
<path id="arrow left" d="M25.9187 16.2437C26.0687 16.0937 26.275 16 26.5 16C26.725 16 26.9125 16.0937 27.0812 16.2437L27.5687 16.7312C27.8875 17.05 27.8875 17.575 27.5687 17.8937L21.9625 23.5L27.5687 29.1062C27.7188 29.2562 27.8125 29.4625 27.8125 29.6875C27.8125 29.9125 27.7188 30.1188 27.5687 30.2688L27.0812 30.7562C26.9312 30.9062 26.725 31 26.5 31C26.275 31 26.0687 30.9062 25.9187 30.7562L19.2437 24.0813C19.0937 23.9313 19 23.725 19 23.5C19 23.275 19.0937 23.0687 19.2437 22.9188L25.9187 16.2437Z" fill="white"/>
</g>
</svg>
